
<svg width="15px" height="16px" viewBox="9 8 15 16" version="1.1" xmlns="http://www.w3.org/2000/svg" xmlns:xlink="http://www.w3.org/1999/xlink">
    <path d="M19.3575745,14.3776208 L18.6997666,14.3776208 L18.4711079,14.6046226 C19.2788695,15.5465968 19.7701542,16.7677666 19.7701542,18.1057511 C19.7701542,21.0799706 17.3592966,23.4908282 14.3850771,23.4908282 C11.4108576,23.4908282 9,21.0799706 9,18.1057511 C9,15.1315316 11.4108576,12.720674 14.3850771,12.720674 C15.7230616,12.720674 16.943403,13.2111303 17.8853772,14.0180634 L18.1140359,13.7910617 L18.1140359,13.1349107 L22.2547459,9 L23.4899998,10.2352538 L19.3575745,14.3776208 L19.3575745,14.3776208 Z M10.6569468,18.1057511 C10.6569468,20.1645075 12.3254922,21.8338814 14.3850771,21.8338814 C16.4438335,21.8338814 18.1132074,20.1645075 18.1132074,18.1057511 C18.1132074,16.0461663 16.4438335,14.3776208 14.3850771,14.3776208 C12.3254922,14.3776208 10.6569468,16.0461663 10.6569468,18.1057511 Z" id="Shape" stroke="none" fill="#6D6D6D" fill-rule="evenodd" transform="translate(16.245000, 16.245414) scale(1, -1) translate(-16.245000, -16.245414) "></path>
</svg>